# Blender 3.6.3
# www.blender.org
mtllib neredzams clesh.mtl
o Plane
v -76.010849 -0.940113 0.248603
v -76.044952 -0.709226 -4.176727
v -81.432358 -1.343318 0.329025
v -81.466522 -1.102268 -4.294554
v -76.044952 -0.709226 -4.176727
v -75.801712 -0.520219 -8.533393
v -81.466522 -1.102268 -4.294554
v -81.193817 -0.892964 -9.123372
v -75.801712 -0.520219 -8.533393
v -75.054596 -0.379221 -12.734591
v -81.193817 -0.892964 -9.123372
v -80.280563 -0.723492 -14.194885
v -75.054596 -0.379221 -12.734591
v -73.486191 -0.310247 -16.566845
v -80.280563 -0.723492 -14.194885
v -78.151352 -0.632436 -19.340733
v -73.486191 -0.310247 -16.566845
v -70.862656 -0.345398 -19.665125
v -78.151352 -0.632436 -19.340733
v -74.393936 -0.682420 -23.785616
v -70.862656 -0.345398 -19.665125
v -67.364189 -0.478205 -21.860674
v -74.393936 -0.682420 -23.785616
v -69.669304 -0.860906 -26.770033
v -67.364189 -0.478205 -21.860674
v -63.357998 -0.671687 -23.280800
v -69.669304 -0.860906 -26.770033
v -64.772659 -1.097089 -28.513353
v -63.357998 -0.671687 -23.280800
v -59.114594 -0.888441 -24.134459
v -64.772659 -1.097089 -28.513353
v -59.938881 -1.343916 -29.489357
v -59.114594 -0.888441 -24.134459
v -54.776722 -1.100699 -24.596773
v -59.938881 -1.343916 -29.489357
v -55.155682 -1.577931 -29.999598
v -54.776722 -1.100699 -24.596773
v -50.405304 -1.286829 -24.719835
v -55.155682 -1.577931 -29.999598
v -50.386406 -1.781009 -30.134382
v -50.405304 -1.286829 -24.719835
v -46.035992 -1.431720 -24.536873
v -50.386406 -1.781009 -30.134382
v -45.619595 -1.938963 -29.934198
v -46.035992 -1.431720 -24.536873
v -41.699757 -1.519347 -24.020376
v -45.619595 -1.938963 -29.934198
v -40.860920 -2.035145 -29.367540
v -41.699757 -1.519347 -24.020376
v -37.427933 -1.543900 -23.165722
v -40.860920 -2.035145 -29.367540
v -36.127586 -2.062181 -28.419514
v -37.427933 -1.543900 -23.165722
v -33.267090 -1.498978 -21.921103
v -36.127586 -2.062181 -28.419514
v -31.460394 -2.011846 -27.023520
v -33.267090 -1.498978 -21.921103
v -29.259014 -1.395385 -20.274427
v -31.460394 -2.011846 -27.023520
v -26.922600 -1.894542 -25.158468
v -29.259005 -1.395384 -20.274424
v -25.445480 -1.254443 -18.210337
v -26.922588 -1.894542 -25.158464
v -22.606283 -1.735126 -22.822250
v -25.445475 -1.254442 -18.210333
v -21.838306 -1.105522 -15.759607
v -22.606276 -1.735125 -22.822245
v -18.602806 -1.569916 -20.104458
v -21.838306 -1.105522 -15.759607
v -18.389450 -0.968233 -13.026069
v -18.602806 -1.569916 -20.104458
v -14.907264 -1.422773 -17.176928
v -18.389442 -0.968233 -13.026062
v -15.014056 -0.849526 -10.126221
v -14.907256 -1.422773 -17.176924
v -11.453390 -1.301232 -14.210269
v -15.014056 -0.849526 -10.126221
v -11.574616 -0.746320 -7.203266
v -11.453390 -1.301232 -14.210269
v -8.153390 -1.202149 -11.404372
v -11.574606 -0.746319 -7.203258
v -7.871305 -0.642157 -4.470562
v -8.153379 -1.202149 -11.404364
v -4.933634 -1.111667 -9.021548
v -7.871297 -0.642156 -4.470553
v -3.665788 -0.506211 -2.323656
v -4.933624 -1.111667 -9.021543
v -1.789029 -1.010458 -7.401584
v -3.665788 -0.506211 -2.323656
v 1.044183 -0.308204 -1.357825
v -1.789029 -1.010458 -7.401584
v 1.318260 -0.880098 -6.757794
v 1.044183 -0.308204 -1.357825
v 5.801798 -0.052452 -1.854369
v 1.318260 -0.880098 -6.757794
v 4.555659 -0.705662 -7.106255
v 5.801812 -0.052451 -1.854373
v 10.212017 0.231642 -3.459427
v 4.555667 -0.705662 -7.106257
v 7.943932 -0.487030 -8.348305
v 10.212038 0.231643 -3.459435
v 14.228054 0.524868 -5.730016
v 7.943945 -0.487029 -8.348312
v 11.348858 -0.238200 -10.278622
v 14.228054 0.524868 -5.730016
v 17.944565 0.819605 -8.374569
v 11.348858 -0.238200 -10.278622
v 14.695124 0.027237 -12.661190
v 17.944565 0.819605 -8.374569
v 21.439369 1.114138 -11.252329
v 14.695124 0.027237 -12.661190
v 17.961563 0.302572 -15.352090
v 21.439369 1.114138 -11.252329
v 24.784420 1.410949 -14.267834
v 17.961563 0.302572 -15.352090
v 21.165018 0.586851 -18.240566
v 24.784420 1.410949 -14.267834
v 28.031258 1.716219 -17.356878
v 21.165018 0.586851 -18.240566
v 24.341661 0.885557 -21.263126
v 28.031258 1.716219 -17.356878
v 31.229939 2.041232 -20.456213
v 24.341661 0.885557 -21.263126
v 27.550163 1.211642 -24.371931
v 31.229939 2.041232 -20.456213
v 34.444672 2.408407 -23.474182
v 27.550163 1.211642 -24.371931
v 30.898197 1.594231 -27.514168
v 34.444672 2.408407 -23.474182
v 37.760025 2.850663 -26.273546
v 30.898197 1.594231 -27.514168
v 34.546799 2.081504 -30.591579
v 37.760025 2.850663 -26.273546
v 41.276592 3.416497 -28.648705
v 34.546799 2.081504 -30.591579
v 38.685165 2.748153 -33.381535
v 41.276592 3.416497 -28.648705
v 45.056751 4.142332 -30.401363
v 38.685165 2.748153 -33.381535
v 43.321072 3.638518 -35.529270
v 45.056751 4.142332 -30.401363
v 49.066410 5.023818 -31.449606
v 43.321072 3.638518 -35.529270
v 48.210445 4.713066 -36.809883
v 49.066410 5.023818 -31.449606
v 53.210716 6.024299 -31.849804
v 48.210445 4.713066 -36.809883
v 53.088245 5.890234 -37.283859
v 53.210716 6.024299 -31.849804
v 57.402313 7.101969 -31.729353
v 53.088245 5.890234 -37.283859
v 57.835308 7.110501 -37.149158
v 57.402313 7.101969 -31.729353
v 61.589291 8.226003 -31.212130
v 57.835308 7.110501 -37.149158
v 62.436161 8.345553 -36.581524
v 61.589291 8.226003 -31.212130
v 65.749313 9.376715 -30.389061
v 62.436161 8.345553 -36.581524
v 66.900482 9.580345 -35.698975
v 65.749313 9.376715 -30.389061
v 69.889511 10.539255 -29.349630
v 66.900482 9.580345 -35.698975
v 71.231201 10.796343 -34.612289
v 69.889511 10.539255 -29.349630
v 74.053299 11.700088 -28.203178
v 71.231201 10.796343 -34.612289
v 75.410141 11.961518 -33.461735
v 74.053299 11.700088 -28.203178
v 78.354080 12.837509 -27.157326
v 75.410141 11.961518 -33.461735
v 79.358978 13.006857 -32.498055
v 78.354080 12.837509 -27.157326
v 82.947906 13.890667 -26.671461
v 79.358978 13.006857 -32.498055
v 82.912598 13.824724 -32.108025
v 82.947906 13.890667 -26.671461
v 87.678955 14.725494 -27.430540
v 82.912598 13.824724 -32.108025
v 86.044708 14.378214 -32.604565
v 87.678955 14.725494 -27.430540
v 91.966171 15.295424 -29.546171
v 86.044708 14.378214 -32.604565
v 89.010712 14.771158 -34.079624
v 91.966171 15.295424 -29.546171
v 95.579910 15.725183 -32.518730
v 89.010712 14.771158 -34.079624
v 91.839706 15.107353 -36.416317
v 95.579910 15.725183 -32.518730
v 98.636902 16.145796 -35.963879
v 91.839706 15.107353 -36.416317
v 94.418747 15.462389 -39.325718
v 98.636902 16.145796 -35.963879
v 101.228470 16.603281 -39.763443
v 94.418747 15.462389 -39.325718
v 96.619766 15.850742 -42.548306
v 101.228470 16.603281 -39.763443
v 103.283646 17.048069 -43.891438
v 96.619766 15.850742 -42.548306
v 98.356461 16.227093 -46.038689
v 103.283646 17.048069 -43.891438
v 104.814316 17.417233 -48.233067
v 98.356461 16.227093 -46.038689
v 99.679138 16.546513 -49.793167
v 104.814316 17.417233 -48.233067
v 105.877106 17.678047 -52.687496
v 99.679138 16.546513 -49.793167
v 100.628021 16.779472 -53.783604
v 105.877106 17.678047 -52.687496
v 106.616119 17.844185 -57.185047
v 100.628021 16.779472 -53.783604
v 101.307281 16.932192 -57.924286
v 106.616119 17.844185 -57.185047
v 107.104080 17.925169 -61.697948
v 101.307281 16.932192 -57.924286
v 101.765518 17.008186 -62.167679
vn 0.0733 -0.9959 -0.0525
vn 0.0731 -0.9966 -0.0391
vn 0.0713 -0.9972 -0.0206
vn 0.0636 -0.9979 0.0084
vn 0.0414 -0.9981 0.0463
vn 0.0088 -0.9972 0.0738
vn -0.0176 -0.9962 0.0858
vn -0.0327 -0.9954 0.0897
vn -0.0390 -0.9951 0.0906
vn -0.0398 -0.9951 0.0907
vn -0.0368 -0.9952 0.0907
vn -0.0310 -0.9954 0.0912
vn -0.0242 -0.9954 0.0922
vn -0.0173 -0.9954 0.0939
vn -0.0134 -0.9954 0.0953
vn -0.0145 -0.9954 0.0948
vn -0.0207 -0.9956 0.0910
vn -0.0281 -0.9959 0.0855
vn -0.0341 -0.9962 0.0805
vn -0.0366 -0.9963 0.0783
vn -0.0324 -0.9961 0.0818
vn -0.0155 -0.9956 0.0929
vn 0.0199 -0.9941 0.1062
vn 0.0648 -0.9920 0.1082
vn 0.1001 -0.9900 0.0993
vn 0.1223 -0.9885 0.0885
vn 0.1353 -0.9876 0.0800
vn 0.1437 -0.9869 0.0735
vn 0.1493 -0.9864 0.0686
vn 0.1539 -0.9860 0.0643
vn 0.1583 -0.9856 0.0600
vn 0.1639 -0.9850 0.0547
vn 0.1716 -0.9840 0.0477
vn 0.1838 -0.9822 0.0381
vn 0.2011 -0.9792 0.0282
vn 0.2200 -0.9753 0.0214
vn 0.2363 -0.9715 0.0186
vn 0.2485 -0.9685 0.0183
vn 0.2570 -0.9662 0.0190
vn 0.2629 -0.9646 0.0200
vn 0.2655 -0.9639 0.0206
vn 0.2634 -0.9645 0.0200
vn 0.2519 -0.9676 0.0168
vn 0.2227 -0.9748 0.0107
vn 0.1755 -0.9844 0.0107
vn 0.1421 -0.9896 0.0217
vn 0.1380 -0.9901 0.0246
vn 0.1502 -0.9886 0.0125
vn 0.1648 -0.9863 -0.0063
vn 0.1729 -0.9847 -0.0201
vn 0.1738 -0.9845 -0.0225
vn 0.1721 -0.9849 -0.0166
vn 0.1704 -0.9853 -0.0084
vn 0.1692 -0.9856 0.0006
vt 0.000000 0.000000
vt 0.000000 1.000000
vt 1.000000 1.000000
vt 1.000000 0.000000
s 0
usemtl cels
f 1/1/1 3/2/1 4/3/1 2/4/1
f 5/1/2 7/2/2 8/3/2 6/4/2
f 9/1/3 11/2/3 12/3/3 10/4/3
f 13/1/4 15/2/4 16/3/4 14/4/4
f 17/1/5 19/2/5 20/3/5 18/4/5
f 21/1/6 23/2/6 24/3/6 22/4/6
f 25/1/7 27/2/7 28/3/7 26/4/7
f 29/1/8 31/2/8 32/3/8 30/4/8
f 33/1/9 35/2/9 36/3/9 34/4/9
f 37/1/10 39/2/10 40/3/10 38/4/10
f 41/1/11 43/2/11 44/3/11 42/4/11
f 45/1/12 47/2/12 48/3/12 46/4/12
f 49/1/13 51/2/13 52/3/13 50/4/13
f 53/1/14 55/2/14 56/3/14 54/4/14
f 57/1/15 59/2/15 60/3/15 58/4/15
f 61/1/16 63/2/16 64/3/16 62/4/16
f 65/1/17 67/2/17 68/3/17 66/4/17
f 69/1/18 71/2/18 72/3/18 70/4/18
f 73/1/19 75/2/19 76/3/19 74/4/19
f 77/1/20 79/2/20 80/3/20 78/4/20
f 81/1/21 83/2/21 84/3/21 82/4/21
f 85/1/22 87/2/22 88/3/22 86/4/22
f 89/1/23 91/2/23 92/3/23 90/4/23
f 93/1/24 95/2/24 96/3/24 94/4/24
f 97/1/25 99/2/25 100/3/25 98/4/25
f 101/1/26 103/2/26 104/3/26 102/4/26
f 105/1/27 107/2/27 108/3/27 106/4/27
f 109/1/28 111/2/28 112/3/28 110/4/28
f 113/1/29 115/2/29 116/3/29 114/4/29
f 117/1/30 119/2/30 120/3/30 118/4/30
f 121/1/31 123/2/31 124/3/31 122/4/31
f 125/1/32 127/2/32 128/3/32 126/4/32
f 129/1/33 131/2/33 132/3/33 130/4/33
f 133/1/34 135/2/34 136/3/34 134/4/34
f 137/1/35 139/2/35 140/3/35 138/4/35
f 141/1/36 143/2/36 144/3/36 142/4/36
f 145/1/37 147/2/37 148/3/37 146/4/37
f 149/1/38 151/2/38 152/3/38 150/4/38
f 153/1/39 155/2/39 156/3/39 154/4/39
f 157/1/40 159/2/40 160/3/40 158/4/40
f 161/1/41 163/2/41 164/3/41 162/4/41
f 165/1/42 167/2/42 168/3/42 166/4/42
f 169/1/43 171/2/43 172/3/43 170/4/43
f 173/1/44 175/2/44 176/3/44 174/4/44
f 177/1/45 179/2/45 180/3/45 178/4/45
f 181/1/46 183/2/46 184/3/46 182/4/46
f 185/1/47 187/2/47 188/3/47 186/4/47
f 189/1/48 191/2/48 192/3/48 190/4/48
f 193/1/49 195/2/49 196/3/49 194/4/49
f 197/1/50 199/2/50 200/3/50 198/4/50
f 201/1/51 203/2/51 204/3/51 202/4/51
f 205/1/52 207/2/52 208/3/52 206/4/52
f 209/1/53 211/2/53 212/3/53 210/4/53
f 213/1/54 215/2/54 216/3/54 214/4/54
