# Blender 3.6.3
# www.blender.org
mtllib road.mtl
o Plane.007
v -91.847351 -7.496249 48.625740
v -88.040329 -6.509126 44.306393
v -95.879715 -7.267383 44.405273
v -92.072685 -6.280260 40.085922
v -88.040329 -6.509126 44.306393
v -84.172310 -5.506772 39.924023
v -92.072685 -6.280260 40.085922
v -88.567856 -5.368597 36.078926
v -84.172310 -5.506772 39.924023
v -80.733513 -4.527044 35.069473
v -88.567856 -5.368597 36.078926
v -85.837341 -4.590925 32.228447
v -80.733513 -4.527044 35.069473
v -78.359749 -3.660273 29.614691
v -85.837341 -4.590925 32.228447
v -83.896446 -3.881785 27.765213
v -78.359749 -3.660273 29.614691
v -76.996704 -2.932626 23.842342
v -83.896446 -3.881785 27.765213
v -82.733475 -3.256416 22.789145
v -76.996704 -2.932626 23.842342
v -76.293755 -2.315749 17.975937
v -82.733475 -3.256416 22.789145
v -82.104446 -2.702348 17.516510
v -76.293755 -2.315749 17.975937
v -76.091660 -1.802437 12.094744
v -82.104446 -2.702348 17.516510
v -81.917641 -2.222810 12.017782
v -76.091660 -1.802437 12.094744
v -76.175034 -1.372487 6.233757
v -81.917641 -2.222810 12.017782
v -81.999359 -1.807120 6.347793
v -76.175034 -1.372487 6.233757
v -76.337814 -1.013358 0.403590
v -81.999359 -1.807120 6.347793
v -82.162636 -1.446807 0.494328
v -76.337814 -1.013358 0.403590
v -76.340027 -0.718024 -5.384150
v -82.162636 -1.446807 0.494328
v -82.162018 -1.135287 -5.618510
v -76.340027 -0.718024 -5.384150
v -75.778023 -0.493535 -11.055819
v -82.162018 -1.135287 -5.618510
v -81.500183 -0.877004 -12.166906
v -75.778023 -0.493535 -11.055819
v -74.000595 -0.374328 -16.305647
v -81.500183 -0.877004 -12.166906
v -79.113876 -0.721763 -19.108912
v -74.000595 -0.374328 -16.305647
v -70.462029 -0.424489 -20.422106
v -79.113876 -0.721763 -19.108912
v -73.987862 -0.794724 -25.064959
v -70.462029 -0.424489 -20.422106
v -65.531433 -0.634118 -22.959894
v -73.987862 -0.794724 -25.064959
v -67.483452 -1.069741 -28.448471
v -65.531433 -0.634118 -22.959894
v -60.022484 -0.912894 -24.327404
v -67.483452 -1.069741 -28.448471
v -61.015427 -1.396816 -30.063650
v -60.022484 -0.912894 -24.327404
v -54.325294 -1.191630 -24.950792
v -61.015427 -1.396816 -30.063650
v -54.685432 -1.706530 -30.758530
v -54.325294 -1.191630 -24.950792
v -48.582497 -1.423224 -25.009153
v -54.685432 -1.706530 -30.758530
v -48.386604 -1.960523 -30.822723
v -48.582497 -1.423224 -25.009153
v -42.863014 -1.572561 -24.523869
v -48.386604 -1.960523 -30.822723
v -42.092327 -2.124741 -30.288048
v -42.863014 -1.572561 -24.523869
v -37.234497 -1.615773 -23.458473
v -42.092327 -2.124741 -30.288048
v -35.823711 -2.172580 -29.099777
v -37.234497 -1.615773 -23.458473
v -31.792383 -1.541569 -21.724697
v -35.823711 -2.172580 -29.099777
v -29.662792 -2.088608 -27.136745
v -31.792383 -1.541569 -21.724697
v -26.634197 -1.377704 -19.290241
v -29.662792 -2.088608 -27.136745
v -23.769844 -1.901442 -24.354414
v -26.634197 -1.377704 -19.290241
v -21.835293 -1.182145 -16.166309
v -23.769844 -1.901442 -24.354414
v -18.378830 -1.681909 -20.849020
v -21.835293 -1.182145 -16.166309
v -17.323338 -1.004253 -12.559896
v -18.378830 -1.681909 -20.849020
v -13.540794 -1.491082 -16.984823
v -17.323338 -1.004253 -12.559896
v -12.900745 -0.858827 -8.739710
v -13.540794 -1.491082 -16.984823
v -9.126919 -1.345737 -13.172073
v -12.900745 -0.858827 -8.739710
v -8.219467 -0.726260 -5.090869
v -9.126919 -1.345737 -13.172073
v -4.957626 -1.227653 -9.911003
v -8.219467 -0.726260 -5.090869
v -2.799507 -0.549619 -2.362279
v -4.957626 -1.227653 -9.911003
v -1.040977 -1.101023 -7.905581
v -2.799507 -0.549619 -2.362279
v 3.308170 -0.269863 -1.736586
v -1.040977 -1.101023 -7.905581
v 2.765472 -0.926741 -7.515741
v 3.308170 -0.269863 -1.736586
v 9.160553 0.085264 -3.341848
v 2.765472 -0.926741 -7.515741
v 6.919319 -0.673555 -8.682796
v 9.160553 0.085264 -3.341848
v 14.393524 0.463935 -6.221049
v 6.919319 -0.673555 -8.682796
v 11.254662 -0.359397 -11.078449
v 14.393524 0.463935 -6.221049
v 19.141151 0.846706 -9.743723
v 11.254662 -0.359397 -11.078449
v 15.540565 -0.013680 -14.262592
v 19.141151 0.846706 -9.743723
v 23.579086 1.231260 -13.596169
v 15.540565 -0.013680 -14.262592
v 19.727654 0.349212 -17.898851
v 23.579086 1.231260 -13.596169
v 27.830299 1.627452 -17.613379
v 19.727654 0.349212 -17.898851
v 23.865929 0.734959 -21.810030
v 27.830299 1.627452 -17.613379
v 32.010048 2.059788 -21.652283
v 23.865929 0.734959 -21.810030
v 28.084457 1.171524 -25.886120
v 32.010048 2.059788 -21.652283
v 36.275749 2.581699 -25.499075
v 28.084457 1.171524 -25.886120
v 32.653320 1.731296 -30.002348
v 36.275749 2.581699 -25.499075
v 40.844849 3.286263 -28.780045
v 32.653320 1.731296 -30.002348
v 37.997978 2.557217 -33.828655
v 40.844849 3.286263 -28.780045
v 45.877205 4.264380 -31.027765
v 37.997978 2.557217 -33.828655
v 44.237297 3.770285 -36.612675
v 45.877205 4.264380 -31.027765
v 51.261681 5.495840 -32.074551
v 44.237297 3.770285 -36.612675
v 50.791176 5.268383 -37.892754
v 51.261681 5.495840 -32.074551
v 56.774445 6.888889 -32.112591
v 50.791176 5.268383 -37.892754
v 57.157997 6.876624 -37.941601
vn -0.0935 0.9853 0.1428
vn -0.0935 0.9854 0.1426
vn -0.0884 0.9867 0.1365
vn -0.0804 0.9892 0.1222
vn -0.0755 0.9914 0.1070
vn -0.0736 0.9927 0.0956
vn -0.0728 0.9938 0.0842
vn -0.0728 0.9946 0.0740
vn -0.0731 0.9953 0.0633
vn -0.0734 0.9960 0.0508
vn -0.0729 0.9968 0.0321
vn -0.0671 0.9977 -0.0005
vn -0.0416 0.9980 -0.0480
vn 0.0009 0.9968 -0.0798
vn 0.0282 0.9956 -0.0890
vn 0.0388 0.9951 -0.0906
vn 0.0392 0.9951 -0.0907
vn 0.0337 0.9953 -0.0908
vn 0.0250 0.9954 -0.0920
vn 0.0164 0.9954 -0.0941
vn 0.0134 0.9954 -0.0954
vn 0.0193 0.9956 -0.0920
vn 0.0287 0.9960 -0.0851
vn 0.0356 0.9962 -0.0792
vn 0.0344 0.9962 -0.0802
vn 0.0152 0.9955 -0.0938
vn -0.0343 0.9934 -0.1097
vn -0.0890 0.9906 -0.1038
vn -0.1210 0.9886 -0.0896
vn -0.1378 0.9874 -0.0783
vn -0.1469 0.9866 -0.0708
vn -0.1533 0.9860 -0.0649
vn -0.1592 0.9855 -0.0592
vn -0.1671 0.9846 -0.0516
vn -0.1805 0.9827 -0.0402
vn -0.2024 0.9789 -0.0272
vn -0.2265 0.9738 -0.0197
vn -0.2450 0.9693 -0.0181
vt 0.997587 0.999952
vt 0.012082 0.990851
vt 0.001922 0.003485
vt 1.003214 0.010143
vt 1.007797 0.999611
vt 0.000006 1.006247
vt 0.001517 0.005292
vt 0.997176 -0.000148
vt 0.999663 0.999691
vt 0.002632 0.990894
vt 0.009740 -0.014390
vt 0.997128 0.002306
vt 1.002071 1.000387
vt -0.001372 0.998037
vt -0.001531 -0.000759
vt 0.999886 -0.008335
vt 0.998014 0.995589
vt 0.000211 1.000942
vt -0.002364 -0.001804
vt 0.999070 0.007539
vt 1.000085 1.004679
vt -0.002682 0.994329
vt 0.005212 -0.005325
vt 0.997459 0.009303
vt 0.497860 0.826455
vt 0.497860 0.974391
vt 0.372262 0.970403
vt 0.372309 0.832091
vt 0.999942 0.510932
vt 0.999942 0.658123
vt 0.874306 0.656548
vt 0.874329 0.514153
vt 0.999040 0.000000
vt 0.999037 0.146344
vt 0.873396 0.147470
vt 0.873396 0.000542
vt 0.748825 0.668417
vt 0.748766 0.813553
vt 0.623204 0.818868
vt 0.623204 0.665580
vt 0.372346 0.505529
vt 0.372584 0.362681
vt 0.497740 0.349793
vt 0.497740 0.514754
vt 0.122931 0.163412
vt 0.123480 0.024574
vt 0.247339 0.000000
vt 0.247339 0.183882
vt 0.122931 0.030240
vt 0.122862 0.166193
vt 0.000000 0.196808
vt 0.000000 0.000000
vt 0.246828 0.208194
vt 0.247340 0.347170
vt 0.122931 0.367629
vt 0.122931 0.183882
vt 0.497276 0.013576
vt 0.497445 0.155900
vt 0.372174 0.167160
vt 0.372174 -0.000000
vt 0.497697 0.523197
vt 0.497740 0.666899
vt 0.372262 0.674423
vt 0.372262 0.514754
vt 0.748537 0.190893
vt 0.748540 0.334840
vt 0.623037 0.341766
vt 0.623037 0.183882
vt 0.748290 0.007083
vt 0.748278 0.150885
vt 0.622794 0.158255
vt 0.622794 0.000000
vt 0.623204 0.518750
vt 0.623171 0.662218
vt 0.497740 0.670723
vt 0.497740 0.510932
vt 0.623037 0.193289
vt 0.623032 0.336343
vt 0.497653 0.345832
vt 0.497653 0.183882
vt 0.622794 0.010030
vt 0.622775 0.152935
vt 0.497445 0.163273
vt 0.497445 0.000000
vt 0.623122 0.359233
vt 0.623186 0.502721
vt 0.497740 0.349793
vt 0.623230 0.499001
vt 0.623186 0.354274
vt 0.748771 0.349793
vt 0.748771 0.504935
vt 0.999435 0.184937
vt 0.999435 0.331341
vt 0.873796 0.329999
vt 0.873794 0.183882
vt 0.748825 0.814262
vt 0.748825 0.665580
vt 0.874172 0.675640
vt 0.874362 0.808235
vt 0.372262 0.826456
vt 0.372262 0.674423
vt 0.496278 0.697903
vt 0.496919 0.808146
vt 0.249193 0.509196
vt 0.249194 0.355275
vt 0.372346 0.384265
vt 0.372344 0.480192
vt 0.497740 0.822964
vt 0.497740 0.670723
vt 0.622225 0.690549
vt 0.621657 0.798790
vt 0.873794 0.183882
vt 0.873794 0.333764
vt 0.748540 0.322248
vt 0.748733 0.197950
vt 0.623205 0.967233
vt 0.623205 0.818868
vt 0.748730 0.825231
vt 0.748660 0.959228
vt 0.122931 0.990188
vt 0.122931 0.842695
vt 0.248536 0.846334
vt 0.248511 0.985516
vt 0.874362 0.812398
vt 0.874362 0.665580
vt 1.000000 0.667067
vt 0.999989 0.809997
vt 0.874214 0.497077
vt 0.874219 0.351111
vt 0.999858 0.349793
vt 0.999858 0.497109
vt 0.623205 0.661503
vt 0.623266 0.517056
vt 0.748800 0.510932
vt 0.748800 0.665580
vt 0.497653 0.194588
vt 0.497475 0.336563
vt 0.372346 0.349793
vt 0.372346 0.183882
vt 0.372174 0.016572
vt 0.372129 0.156759
vt 0.247339 0.173783
vt 0.247339 0.000000
vt 0.372242 0.199759
vt 0.372346 0.340552
vt 0.247340 0.355275
vt 0.247340 0.183882
vt 0.248170 0.379364
vt 0.248261 0.521769
vt 0.122931 0.532092
vt 0.122931 0.367629
s 0
usemtl cels
f 1/1/1 2/2/1 4/3/1 3/4/1
f 5/5/2 6/6/2 8/7/2 7/8/2
f 9/9/3 10/10/3 12/11/3 11/12/3
f 13/13/4 14/14/4 16/15/4 15/16/4
f 17/17/5 18/18/5 20/19/5 19/20/5
f 21/21/6 22/22/6 24/23/6 23/24/6
f 25/25/7 26/26/7 28/27/7 27/28/7
f 29/29/8 30/30/8 32/31/8 31/32/8
f 33/33/9 34/34/9 36/35/9 35/36/9
f 37/37/10 38/38/10 40/39/10 39/40/10
f 41/41/11 42/42/11 44/43/11 43/44/11
f 45/45/12 46/46/12 48/47/12 47/48/12
f 49/49/13 50/50/13 52/51/13 51/52/13
f 53/53/14 54/54/14 56/55/14 55/56/14
f 57/57/15 58/58/15 60/59/15 59/60/15
f 61/61/16 62/62/16 64/63/16 63/64/16
f 65/65/17 66/66/17 68/67/17 67/68/17
f 69/69/18 70/70/18 72/71/18 71/72/18
f 73/73/19 74/74/19 76/75/19 75/76/19
f 77/77/20 78/78/20 80/79/20 79/80/20
f 81/81/21 82/82/21 84/83/21 83/84/21
f 85/85/22 86/86/22 88/76/22 87/87/22
f 89/88/23 90/89/23 92/90/23 91/91/23
f 93/92/24 94/93/24 96/94/24 95/95/24
f 97/96/25 98/97/25 100/98/25 99/99/25
f 101/100/26 102/101/26 104/102/26 103/103/26
f 105/104/27 106/105/27 108/106/27 107/107/27
f 109/108/28 110/109/28 112/110/28 111/111/28
f 113/112/29 114/113/29 116/114/29 115/115/29
f 117/116/30 118/117/30 120/118/30 119/119/30
f 121/120/31 122/121/31 124/122/31 123/123/31
f 125/124/32 126/125/32 128/126/32 127/127/32
f 129/128/33 130/129/33 132/130/33 131/131/33
f 133/132/34 134/133/34 136/134/34 135/135/34
f 137/136/35 138/137/35 140/138/35 139/139/35
f 141/140/36 142/141/36 144/142/36 143/143/36
f 145/144/37 146/145/37 148/146/37 147/147/37
f 149/148/38 150/149/38 152/150/38 151/151/38
